<?xml version="1.0" standalone="no"?>
<!DOCTYPE svg PUBLIC "-//W3C//DTD SVG 20010904//EN"
 "http://www.w3.org/TR/2001/REC-SVG-20010904/DTD/svg10.dtd">
<svg version="1.0" xmlns="http://www.w3.org/2000/svg"
 width="260.000000pt" height="260.000000pt" viewBox="0 0 260.000000 260.000000"
 preserveAspectRatio="xMidYMid meet">
<metadata>
Created by potrace 1.14, written by Peter Selinger 2001-2017
</metadata>
<g transform="translate(0.000000,260.000000) scale(0.100000,-0.100000)"
fill="#000000" stroke="none">
<path d="M0 2506 c0 -81 3 -97 18 -108 11 -7 24 -29 31 -50 10 -30 9 -43 -4
-74 -20 -47 -7 -68 33 -53 43 17 96 -6 118 -50 9 -20 17 -40 15 -45 -1 -5 6
-6 15 -2 14 5 16 2 10 -26 -3 -18 -16 -42 -28 -55 -12 -13 -18 -23 -14 -23 5
0 3 -6 -3 -13 -6 -8 -8 -17 -4 -20 3 -4 -1 -7 -11 -7 -9 0 -15 -4 -12 -9 4 -5
-7 -12 -23 -16 -17 -4 -31 -14 -34 -26 -3 -12 -13 -20 -24 -19 -10 1 -33 2
-51 1 l-32 -1 2 -717 c3 -712 3 -718 23 -714 40 8 272 8 348 -1 43 -4 89 -16
104 -25 14 -9 33 -17 43 -18 33 -3 66 -32 92 -82 25 -48 25 -48 71 -46 26 2
47 -1 47 -6 0 -5 6 -8 12 -8 19 2 90 -13 115 -23 14 -6 33 -6 49 0 19 7 31 7
40 -1 11 -9 18 -8 32 5 21 18 67 21 78 5 8 -14 57 -4 107 21 21 11 43 18 48
14 20 -12 180 -21 197 -10 17 10 15 31 -4 47 -21 18 -84 39 -84 29 0 -5 -15
-12 -32 -15 -18 -4 -37 -13 -41 -19 -6 -8 -10 -8 -14 1 -3 8 -14 11 -28 7 -19
-5 -24 -1 -27 18 -2 19 -9 23 -38 24 -20 1 -52 13 -74 28 -22 14 -57 29 -78
32 -30 5 -40 12 -44 31 -5 16 -16 26 -36 30 -16 3 -32 12 -35 19 -3 8 -13 14
-22 14 -38 0 -71 26 -87 68 -9 23 -21 42 -25 42 -5 0 -9 6 -9 14 0 8 -9 22
-21 30 -12 8 -18 19 -14 25 3 6 -1 11 -9 11 -9 0 -16 7 -16 15 0 8 -4 15 -10
15 -5 0 -10 -4 -10 -10 0 -5 -5 -10 -11 -10 -6 0 -8 7 -5 15 4 10 -2 19 -17
24 -12 5 -32 21 -44 35 -13 14 -27 26 -33 26 -6 0 -8 10 -4 24 8 32 -3 66 -22
66 -8 0 -14 7 -14 16 0 8 -5 12 -10 9 -6 -3 -13 2 -17 12 -4 10 -9 20 -12 23
-3 3 -15 15 -25 28 -17 20 -18 22 -3 16 16 -6 16 -4 0 25 -10 17 -22 31 -28
31 -5 0 -3 4 4 9 20 13 22 78 3 94 -12 9 -14 9 -8 0 4 -8 -2 -22 -14 -35 -12
-13 -20 -18 -19 -13 1 6 -3 21 -8 36 -6 14 -9 37 -6 51 3 14 0 29 -6 32 -6 4
-11 14 -11 23 0 13 5 12 25 -7 14 -13 25 -29 25 -36 0 -7 5 -16 12 -20 8 -5 9
-2 5 10 -4 10 2 35 13 59 23 48 24 51 8 41 -8 -5 -9 -2 -5 9 5 12 -1 19 -18
23 -14 3 -23 10 -20 14 3 5 -4 11 -15 15 -24 8 -26 30 -4 39 10 4 14 12 10 22
-5 13 -2 15 14 11 16 -4 20 -1 18 11 -2 11 -11 16 -23 14 -17 -3 -15 0 8 22
15 14 25 31 22 36 -4 6 -10 8 -15 5 -16 -10 -22 17 -7 32 18 18 39 9 30 -14
-4 -11 -2 -14 8 -11 8 3 13 13 13 22 -2 18 -3 17 46 19 29 2 35 6 38 27 2 23
1 24 -11 8 -19 -24 -26 -23 -20 2 3 11 9 20 14 20 5 0 9 14 9 30 0 18 8 37 20
47 11 10 20 26 20 36 0 10 8 21 19 24 12 3 17 11 14 22 -5 20 32 65 46 56 10
-6 12 1 16 60 0 13 7 19 19 18 25 -2 44 17 39 38 -3 11 3 20 18 24 23 8 34 15
70 48 10 9 23 17 29 17 5 0 9 5 7 12 -1 7 5 12 13 13 8 0 32 9 54 19 33 17 36
21 23 31 -14 10 -13 12 4 23 11 7 19 8 19 2 0 -12 33 0 43 16 4 7 14 11 23 7
10 -4 17 2 21 16 3 11 12 21 20 21 8 0 12 4 9 9 -3 5 9 12 27 15 46 10 127 14
131 7 2 -3 64 -6 138 -6 78 1 138 -3 145 -10 45 -38 45 -38 53 -25 4 7 13 9
20 5 9 -6 10 -9 0 -15 -9 -5 -9 -9 -1 -14 6 -4 11 -2 11 3 0 16 46 13 60 -4 7
-8 21 -15 32 -15 10 0 21 -6 24 -14 3 -8 12 -12 19 -10 7 3 16 -3 20 -15 3
-11 9 -20 13 -18 4 1 18 -7 30 -19 15 -14 20 -27 16 -39 -5 -13 -4 -16 4 -11
7 4 12 2 12 -4 0 -6 4 -9 9 -6 5 3 15 -9 22 -27 18 -43 74 -98 93 -91 8 3 22
-5 33 -21 10 -15 26 -34 36 -43 9 -9 17 -24 17 -33 0 -24 10 -30 32 -18 23 12
35 5 21 -13 -5 -7 -6 -24 -2 -38 4 -14 7 -19 8 -11 1 11 4 11 16 1 9 -7 13
-21 9 -34 -3 -14 3 -32 21 -51 14 -17 23 -36 20 -44 -3 -7 0 -20 6 -27 6 -7 8
-18 4 -24 -4 -6 1 -33 11 -60 l18 -50 12 30 c13 29 42 44 31 16 -3 -8 -3 -17
1 -20 3 -4 7 -12 8 -19 5 -34 50 -125 72 -144 14 -13 22 -23 17 -23 -4 0 -2
-7 5 -15 29 -35 0 -22 -43 19 -47 45 -105 85 -80 55 6 -8 13 -30 16 -49 4 -33
4 -34 12 -10 8 24 9 24 20 -10 13 -39 10 -60 -10 -60 -8 0 -17 -9 -20 -20 -3
-11 -13 -20 -22 -20 -12 0 -14 -8 -10 -35 3 -19 2 -35 -2 -35 -15 0 -19 -51
-5 -57 27 -10 8 -83 -21 -83 -9 0 -15 -9 -15 -21 0 -12 -8 -23 -20 -26 -11 -3
-20 -12 -20 -19 0 -8 -4 -14 -9 -14 -15 0 -22 -32 -10 -46 9 -11 8 -18 -1 -29
-10 -12 -10 -18 0 -30 10 -12 6 -15 -28 -21 -29 -4 -43 -13 -51 -31 -6 -13
-14 -22 -19 -19 -11 6 -72 -21 -72 -33 0 -6 -7 -8 -17 -4 -13 5 -15 2 -11 -15
4 -16 0 -22 -19 -27 -13 -3 -27 -4 -31 -2 -4 2 -15 -4 -24 -14 -12 -12 -13
-19 -5 -22 7 -2 -1 -11 -18 -20 l-30 -16 43 -1 c23 0 42 -3 42 -7 0 -12 -51
-33 -62 -27 -15 9 -64 -18 -110 -60 -16 -14 -22 -16 -28 -5 -7 10 -11 10 -24
0 -9 -7 -22 -11 -31 -8 -19 8 -31 -11 -16 -26 17 -17 13 -31 -4 -17 -12 10
-18 10 -29 1 -22 -18 -125 -19 -136 -1 -5 8 -12 11 -16 8 -3 -4 1 -14 9 -22 8
-9 17 -21 19 -27 3 -9 9 -9 25 0 39 20 90 13 125 -18 18 -15 39 -27 46 -25 7
1 8 0 2 -3 -5 -2 -10 -11 -10 -19 0 -10 -12 -14 -37 -14 -59 0 -134 -63 -110
-93 3 -4 -30 -37 -37 -37 -3 0 -3 7 0 15 4 9 0 15 -10 15 -9 0 -16 7 -16 15 0
8 -8 15 -18 15 -10 0 -23 5 -30 12 -7 7 -12 8 -12 2 0 -6 6 -16 13 -23 10 -10
7 -10 -14 -3 -28 11 -59 -1 -59 -23 0 -7 -8 -16 -17 -18 -14 -4 -12 -5 5 -6
12 -1 22 5 22 13 0 16 47 19 56 4 4 -6 9 -5 14 2 5 7 7 2 8 -13 0 -14 -6 -24
-12 -23 -6 1 -1 -2 12 -8 22 -10 31 -36 12 -36 -5 0 -10 -6 -10 -14 0 -13 -56
-32 -87 -29 -7 0 -11 -8 -9 -21 2 -11 9 -20 15 -19 5 2 8 -4 5 -12 -7 -18 -9
-18 -36 -4 -15 8 -19 8 -14 0 4 -6 2 -11 -3 -11 -6 0 -11 -4 -11 -10 0 -6 31
-10 74 -10 55 0 84 5 108 19 39 22 105 34 114 20 4 -6 16 -2 30 12 13 12 31
20 42 17 15 -4 22 7 40 68 25 82 50 101 94 70 12 -9 28 -16 35 -16 6 0 24 -5
40 -12 15 -6 31 -11 36 -10 4 1 7 -3 7 -9 0 -5 4 -8 9 -5 5 4 11 2 13 -3 1 -4
24 -11 50 -15 l47 -7 11 40 c15 58 50 65 94 20 49 -50 62 -59 97 -66 17 -3 36
-14 42 -24 7 -11 17 -19 24 -19 7 0 16 -6 20 -13 4 -8 16 -17 26 -20 11 -4 21
-16 24 -27 5 -18 14 -20 89 -20 89 0 92 2 85 56 -1 7 5 14 14 17 9 4 12 13 8
24 -5 14 -1 13 19 -5 22 -20 30 -22 47 -13 20 11 21 19 21 177 0 119 -3 163
-11 158 -6 -3 -15 0 -20 7 -6 10 -11 11 -16 3 -5 -6 -15 -14 -23 -17 -13 -5
-13 -6 1 -6 9 -1 24 -11 35 -22 19 -22 19 -22 -6 -17 -14 3 -33 9 -42 13 -11
4 -18 3 -18 -4 0 -6 5 -11 10 -11 6 0 10 -3 10 -8 0 -4 -17 -8 -37 -9 -21 0
-46 -4 -56 -8 -10 -4 -17 -3 -17 4 0 6 -10 11 -22 12 l-23 0 23 16 c12 8 22
21 22 28 0 21 -32 27 -51 9 -20 -18 -26 -40 -9 -29 6 3 10 -3 10 -14 0 -13 -5
-18 -13 -15 -7 2 -29 -6 -48 -19 -39 -26 -79 -39 -121 -38 -16 0 -28 -4 -28
-9 0 -6 -5 -10 -11 -10 -5 0 -7 4 -4 10 3 6 4 10 0 10 -7 0 -58 -32 -65 -41
-9 -13 -58 -21 -64 -11 -3 5 0 26 5 48 8 25 8 39 1 42 -21 7 131 142 160 142
10 0 18 4 18 8 0 9 7 11 50 14 71 5 105 -2 115 -24 6 -13 20 -24 33 -26 12 -2
22 -8 22 -13 0 -6 5 -7 11 -3 8 5 10 -3 7 -25 -6 -41 8 -40 16 1 5 24 1 37
-16 55 -12 12 -19 26 -15 29 14 14 77 7 97 -11 18 -16 20 -16 20 -2 0 10 -4
17 -8 17 -4 0 -15 12 -24 27 -13 22 -14 39 -8 80 10 63 16 73 38 73 9 0 29 16
45 34 24 32 27 43 27 115 l0 80 -47 -2 c-37 -2 -48 2 -48 13 0 8 -4 18 -8 21
-16 11 17 49 61 70 27 14 42 27 42 40 0 10 -4 19 -10 19 -5 0 -12 11 -16 24
-7 29 -34 42 -46 24 -7 -10 -9 -9 -6 2 3 8 14 19 26 25 12 5 22 13 22 17 0 5
7 8 15 8 13 0 15 30 15 210 0 142 -3 210 -11 210 -5 0 -9 8 -8 18 4 43 -4 62
-41 100 -45 45 -49 63 -19 93 16 16 18 23 8 35 -13 16 -34 19 -24 4 11 -18 -5
-11 -29 13 -13 12 -36 42 -51 66 -23 37 -29 42 -37 28 -5 -10 -16 -17 -25 -17
-12 0 -15 8 -11 38 6 40 -4 55 -40 66 -33 11 -27 30 28 85 30 28 46 52 40 56
-14 9 -13 40 4 54 7 6 35 14 62 18 27 3 51 10 54 14 8 12 60 22 60 11 0 -5 9
-12 20 -15 17 -4 20 0 20 28 0 33 -20 61 -35 47 -5 -4 -5 1 -2 11 5 12 1 17
-13 17 -23 0 -27 15 -5 24 8 3 20 -3 28 -14 19 -27 27 -15 27 38 0 30 -4 42
-12 40 -7 -3 -14 -10 -14 -16 -1 -7 -2 -16 -3 -22 0 -5 -15 -7 -33 -3 -26 5
-30 3 -25 -9 4 -11 -1 -18 -15 -21 -11 -3 -17 -10 -13 -16 3 -6 2 -11 -4 -11
-5 0 -11 6 -14 13 -3 6 -10 -1 -16 -17 -9 -23 -14 -26 -26 -16 -24 20 -36 2
-18 -28 17 -26 17 -26 0 -13 -14 11 -17 11 -17 0 0 -9 -3 -10 -8 -4 -14 19
-30 15 -25 -8 4 -19 3 -20 -7 -4 -6 9 -16 17 -22 17 -9 0 -9 -3 0 -12 7 -7 12
-17 12 -22 0 -6 -5 -5 -12 2 -16 16 -38 15 -38 -2 0 -28 -76 -36 -97 -10 -7
10 -13 11 -17 5 -9 -14 -36 -2 -36 15 0 8 -7 14 -16 14 -20 0 -11 33 20 75 13
17 25 38 29 48 3 9 11 17 17 17 5 0 10 13 10 29 0 25 6 32 40 47 38 17 40 20
34 51 -5 24 -3 33 7 33 11 0 11 2 -1 10 -21 14 -30 12 -30 -5 0 -10 -10 -15
-29 -15 -17 0 -33 -5 -36 -10 -4 -6 -12 -10 -18 -9 -18 3 -56 -14 -58 -26 -1
-5 -3 -16 -5 -22 -13 -44 -12 -43 -39 -31 -14 6 -25 15 -25 20 0 15 -25 8 -50
-14 -14 -13 -36 -24 -50 -26 -14 -1 -26 -7 -28 -12 -6 -18 -17 -11 -30 20 -8
16 -10 35 -5 42 4 7 8 34 8 61 l0 47 -45 0 c-48 0 -64 -7 -71 -29 -5 -15 -69
-24 -69 -9 0 5 -5 6 -10 3 -6 -4 -8 -10 -5 -15 5 -8 -25 -22 -41 -19 -21 3
-24 -2 -13 -23 9 -19 9 -21 -2 -10 -18 17 -32 15 -25 -4 5 -14 4 -15 -8 -5
-10 8 -16 9 -21 1 -4 -7 -12 -5 -22 5 -11 12 -12 19 -4 29 8 10 6 17 -9 31
-11 10 -20 24 -20 32 0 10 -47 13 -249 13 -212 0 -250 -2 -255 -15 -3 -9 0
-15 9 -15 9 0 29 -13 47 -30 22 -22 26 -30 14 -30 -9 0 -16 5 -16 11 0 7 -10
5 -25 -5 -29 -19 -46 -22 -22 -3 25 18 7 35 -32 29 -21 -3 -35 -11 -38 -23 -3
-10 -12 -20 -20 -23 -10 -4 -13 -2 -10 8 4 11 1 13 -11 9 -9 -4 -20 -11 -24
-17 -5 -7 -8 -3 -9 9 -1 13 -4 9 -8 -10 -4 -17 -13 -29 -20 -27 -16 3 -97 -33
-106 -48 -3 -5 -17 -7 -29 -4 -26 6 -40 -14 -25 -37 16 -25 10 -55 -17 -80
-25 -23 -54 -27 -144 -20 -8 1 -30 -2 -48 -5 -25 -5 -41 -1 -61 13 -19 15 -33
18 -49 12 -17 -6 -28 -2 -48 16 -26 24 -38 29 -59 25 -5 -1 -4 4 3 11 6 7 12
17 12 23 0 5 -3 6 -7 3 -3 -4 -21 9 -40 29 -34 37 -41 38 -23 3 6 -11 7 -19 2
-19 -12 0 -24 36 -27 80 -2 29 -6 35 -23 33 -14 -2 -22 5 -26 22 -4 14 -13 25
-22 25 -9 0 -14 6 -11 13 2 6 10 11 16 10 14 -4 14 14 0 23 -6 3 -15 1 -19 -6
-5 -9 -9 -9 -14 -1 -4 6 -25 11 -47 11 l-39 0 0 -94z m1860 69 c0 -8 -4 -15
-10 -15 -5 0 -10 7 -10 15 0 8 5 15 10 15 6 0 10 -7 10 -15z m-1770 -25 c0 -5
-4 -10 -10 -10 -5 0 -10 5 -10 10 0 6 5 10 10 10 6 0 10 -4 10 -10z m269 -739
c7 -5 10 -14 6 -20 -5 -9 -10 -9 -21 0 -26 22 -14 38 15 20z m-29 -37 c0 -8
-4 -12 -10 -9 -5 3 -10 13 -10 21 0 8 5 12 10 9 6 -3 10 -13 10 -21z m-9 -47
c-10 -9 -11 -8 -5 6 3 10 9 15 12 12 3 -3 0 -11 -7 -18z m-111 -249 c0 -6 -7
-5 -15 2 -8 7 -15 17 -15 22 0 6 7 5 15 -2 8 -7 15 -17 15 -22z m0 -118 c0 -5
6 -10 14 -10 17 0 39 -26 34 -40 -2 -6 -21 5 -43 25 -29 25 -35 35 -22 35 9 0
17 -4 17 -10z m20 -113 c13 -10 24 -47 15 -47 -2 0 -17 14 -33 30 -23 23 -26
30 -14 30 9 0 24 -6 32 -13z m2120 -27 c0 -11 -2 -20 -4 -20 -2 0 -6 9 -9 20
-3 11 -1 20 4 20 5 0 9 -9 9 -20z m-1980 -117 c0 -13 -4 -23 -9 -23 -10 0 -19
40 -13 59 6 19 22 -7 22 -36z m54 -149 c21 -20 39 -54 33 -60 -3 -3 -15 10
-28 28 -13 18 -28 36 -34 40 -7 5 -6 8 2 8 6 0 19 -7 27 -16z m1706 -120 c0
-8 -4 -12 -10 -9 -5 3 -10 10 -10 16 0 5 5 9 10 9 6 0 10 -7 10 -16z m176 -71
c-3 -4 -17 -9 -29 -11 -12 -2 -27 -5 -34 -6 -7 -1 -16 -5 -19 -9 -14 -14 -26
-7 -14 8 7 9 19 14 27 11 7 -3 13 -1 13 4 0 6 14 10 32 10 17 0 28 -3 24 -7z
m-136 -63 c0 -5 -5 -10 -11 -10 -5 0 -7 5 -4 10 3 6 8 10 11 10 2 0 4 -4 4
-10z m-1502 -88 c2 -8 -3 -10 -15 -6 -14 4 -13 1 6 -15 19 -18 21 -22 7 -27
-8 -3 -23 1 -32 10 -9 10 -24 14 -35 11 -11 -4 -19 -2 -19 4 0 6 9 11 20 11
11 0 23 7 27 15 6 18 34 16 41 -3z m1436 -18 c8 -20 8 -39 0 -31 -3 3 -17 -6
-30 -20 -13 -14 -27 -23 -30 -20 -3 3 -16 -4 -28 -17 -26 -27 -66 -32 -66 -8
0 12 3 13 8 5 9 -14 9 -13 71 65 35 43 64 54 75 26z m29 2 c4 -10 1 -13 -8 -9
-8 3 -12 9 -9 14 7 12 11 11 17 -5z m-185 -72 c-4 -3 -12 5 -18 18 -12 22 -12
22 6 6 10 -10 15 -20 12 -24z m-1268 11 c7 -8 8 -15 2 -15 -5 0 -15 7 -22 15
-7 8 -8 15 -2 15 5 0 15 -7 22 -15z m1230 -65 c0 -5 -4 -10 -10 -10 -5 0 -10
5 -10 10 0 6 5 10 10 10 6 0 10 -4 10 -10z m-30 -14 c0 -3 -4 -8 -10 -11 -5
-3 -10 -1 -10 4 0 6 5 11 10 11 6 0 10 -2 10 -4z m510 -56 c0 -5 -4 -10 -10
-10 -5 0 -10 5 -10 10 0 6 5 10 10 10 6 0 10 -4 10 -10z m-720 -70 c0 -5 -2
-10 -4 -10 -3 0 -8 5 -11 10 -3 6 -1 10 4 10 6 0 11 -4 11 -10z"/>
<path d="M2068 583 c7 -3 16 -2 19 1 4 3 -2 6 -13 5 -11 0 -14 -3 -6 -6z"/>
<path d="M758 2593 c7 -3 16 -2 19 1 4 3 -2 6 -13 5 -11 0 -14 -3 -6 -6z"/>
<path d="M512 2543 c2 -20 -3 -30 -20 -39 -26 -13 -27 -16 -17 -47 4 -12 8
-29 9 -37 1 -8 9 -16 20 -18 10 -2 16 0 12 6 -3 5 5 7 19 4 20 -3 25 -1 22 14
-1 11 -6 24 -10 31 -4 7 -5 24 -1 38 4 16 2 25 -6 25 -10 0 -10 3 0 15 14 17
5 35 -16 35 -11 0 -14 -8 -12 -27z"/>
<path d="M1620 2559 c0 -5 5 -7 10 -4 6 3 10 8 10 11 0 2 -4 4 -10 4 -5 0 -10
-5 -10 -11z"/>
<path d="M1568 2553 c7 -3 16 -2 19 1 4 3 -2 6 -13 5 -11 0 -14 -3 -6 -6z"/>
<path d="M1580 2520 c0 -5 5 -10 10 -10 6 0 10 5 10 10 0 6 -4 10 -10 10 -5 0
-10 -4 -10 -10z"/>
<path d="M2420 2360 c0 -5 5 -10 11 -10 5 0 7 5 4 10 -3 6 -8 10 -11 10 -2 0
-4 -4 -4 -10z"/>
<path d="M85 1940 c-3 -5 -1 -10 4 -10 6 0 11 5 11 10 0 6 -2 10 -4 10 -3 0
-8 -4 -11 -10z"/>
<path d="M1112 1914 c-17 -12 -41 -20 -51 -17 -23 6 -36 -13 -33 -49 2 -20 -2
-26 -12 -22 -19 7 -27 -33 -20 -89 6 -42 12 -51 39 -57 21 -4 33 -22 27 -42
-4 -17 -2 -20 11 -15 9 3 19 2 22 -3 12 -19 20 -10 20 23 1 17 4 42 9 55 5 17
4 22 -8 22 -9 0 -16 5 -16 10 0 22 40 9 54 -17 l15 -28 -2 41 c-1 23 5 49 13
59 13 15 15 15 32 -7 9 -13 18 -35 18 -49 0 -14 6 -34 14 -44 8 -11 12 -25 9
-32 -3 -7 0 -13 7 -13 7 0 9 -8 4 -22 -6 -20 -5 -21 9 -6 12 12 14 23 8 44 -4
16 -6 35 -4 42 3 6 0 12 -6 12 -22 0 -10 43 18 71 16 15 32 25 35 22 3 -4 6 6
6 21 0 15 -4 25 -9 21 -5 -3 -21 0 -34 6 -18 8 -30 8 -47 -1 -25 -13 -42 -4
-20 11 17 11 198 10 205 -1 2 -4 17 -6 32 -4 15 1 34 -1 43 -6 11 -6 20 -3 28
11 13 20 42 26 42 8 0 -6 -8 -13 -19 -16 -13 -3 -17 -11 -14 -24 3 -12 0 -19
-8 -19 -7 0 1 -13 18 -29 18 -16 43 -28 58 -28 29 0 29 15 0 31 -33 19 -59 46
-51 53 4 4 10 3 14 -3 4 -6 16 -13 27 -16 11 -3 28 -9 38 -13 13 -5 17 -2 17
13 0 24 -16 37 -45 37 -15 0 -19 6 -18 23 2 12 -1 23 -5 23 -49 8 -72 7 -78
-2 -4 -7 1 -9 15 -4 24 7 27 0 7 -21 -27 -26 -46 -10 -46 39 0 20 -1 20 -16 5
-14 -13 -20 -14 -36 -5 -15 10 -20 9 -27 -2 -6 -9 -14 -11 -26 -4 -16 9 -34 7
-95 -8 -8 -2 -15 2 -16 9 -1 6 -2 17 -3 22 -2 22 -21 9 -21 -15 0 -27 -15 -34
-24 -10 -3 8 -10 15 -17 15 -6 0 -9 -6 -6 -13 3 -8 -4 -14 -19 -15 -24 -2 -34
13 -13 20 7 2 7 7 -2 14 -10 8 -22 5 -47 -12z m58 -108 c0 -8 -7 -17 -16 -20
-9 -4 -14 -13 -10 -21 7 -20 -4 -19 -20 3 -19 24 -17 31 9 42 31 12 37 12 37
-4z m-60 -46 c0 -5 -5 -10 -11 -10 -5 0 -7 5 -4 10 3 6 8 10 11 10 2 0 4 -4 4
-10z m-16 -106 c3 -8 2 -12 -4 -9 -6 3 -10 10 -10 16 0 14 7 11 14 -7z"/>
<path d="M2426 1925 c4 -8 8 -15 10 -15 2 0 4 7 4 15 0 8 -4 15 -10 15 -5 0
-7 -7 -4 -15z"/>
<path d="M1281 1574 c0 -11 3 -14 6 -6 3 7 2 16 -1 19 -3 4 -6 -2 -5 -13z"/>
<path d="M1301 1564 c0 -11 3 -14 6 -6 3 7 2 16 -1 19 -3 4 -6 -2 -5 -13z"/>
<path d="M1340 1543 c-54 -8 -70 -14 -70 -28 0 -8 -12 -15 -27 -17 -30 -3 -41
-31 -24 -58 9 -12 16 -12 58 3 61 22 79 21 112 -3 28 -19 28 -19 50 1 11 11
21 21 21 22 0 1 -7 20 -14 42 -12 35 -18 39 -47 40 -19 1 -45 0 -59 -2z"/>
<path d="M438 1442 c19 -21 27 -20 19 3 -4 8 -13 15 -22 15 -13 0 -12 -3 3
-18z"/>
<path d="M1290 1310 c0 -5 5 -10 10 -10 6 0 10 5 10 10 0 6 -4 10 -10 10 -5 0
-10 -4 -10 -10z"/>
<path d="M1320 1309 c0 -5 5 -7 10 -4 6 3 10 8 10 11 0 2 -4 4 -10 4 -5 0 -10
-5 -10 -11z"/>
<path d="M1291 1178 c-1 -10 -6 -18 -12 -18 -5 0 -7 -4 -4 -10 3 -5 20 -8 38
-6 18 2 40 4 50 5 32 2 7 21 -28 21 -18 0 -36 6 -38 13 -3 7 -6 5 -6 -5z"/>
<path d="M1266 1105 c-3 -8 -3 -22 0 -30 4 -9 0 -15 -7 -16 -8 0 -3 -5 11 -10
17 -7 26 -7 28 0 5 15 23 14 21 -1 -2 -22 13 -58 22 -53 4 3 6 12 2 20 -3 9 0
22 7 30 6 8 9 19 5 26 -6 8 -10 7 -16 -2 -7 -11 -9 -10 -9 3 0 22 10 27 41 21
16 -3 30 -15 36 -31 l11 -27 1 27 c1 38 -32 58 -95 58 -37 0 -54 -4 -58 -15z"/>
<path d="M1419 1023 c-4 -27 -3 -39 4 -44 4 -3 2 -19 -4 -35 -10 -25 -13 -26
-16 -9 -6 30 -25 65 -35 65 -5 0 -7 -8 -3 -19 7 -24 -4 -51 -22 -51 -16 0 -47
28 -49 44 -4 36 -4 37 -29 20 -13 -8 -29 -13 -35 -9 -6 3 -10 -3 -10 -15 0
-11 -7 -23 -15 -26 -8 -4 -15 -10 -15 -16 0 -5 4 -7 9 -3 5 3 13 0 17 -6 4 -7
3 -9 -4 -5 -19 11 -62 -37 -69 -77 -4 -28 -2 -37 7 -35 7 2 15 -3 17 -10 3 -8
-1 -10 -13 -5 -12 4 -15 2 -12 -8 4 -12 30 -19 126 -33 12 -2 25 1 28 6 6 9
17 10 152 12 45 0 82 4 82 7 0 30 -169 53 -276 38 -75 -10 -108 2 -52 20 47
15 152 21 227 12 54 -6 67 -5 81 9 16 16 15 18 -7 38 -14 12 -22 22 -18 22 4
0 1 10 -7 23 -8 12 -20 39 -27 60 -11 33 -29 50 -32 30z m-139 -46 c0 -2 -9
-12 -20 -22 -24 -21 -27 -14 -4 9 15 15 24 20 24 13z"/>
<path d="M1855 690 c-3 -5 -1 -10 4 -10 6 0 11 5 11 10 0 6 -2 10 -4 10 -3 0
-8 -4 -11 -10z"/>
<path d="M1706 555 c-3 -8 -1 -15 4 -15 6 0 10 7 10 15 0 8 -2 15 -4 15 -2 0
-6 -7 -10 -15z"/>
<path d="M1230 380 c0 -5 4 -10 9 -10 6 0 13 5 16 10 3 6 -1 10 -9 10 -9 0
-16 -4 -16 -10z"/>
<path d="M553 174 c-6 -14 -9 -33 -5 -42 5 -15 4 -15 -12 1 -22 22 -33 22 -15
0 12 -15 12 -16 -4 -10 -10 4 -23 7 -28 7 -6 0 -7 5 -4 10 3 6 1 10 -4 10 -6
0 -11 -5 -11 -11 0 -5 -8 -9 -17 -8 -32 3 -35 -1 -17 -18 20 -20 67 -21 109
-3 17 7 35 12 42 11 17 -2 24 15 10 27 -6 6 -15 11 -19 11 -12 1 -10 16 2 17
23 3 24 5 10 14 -21 14 -24 13 -37 -16z m-73 -54 c0 -5 -5 -10 -11 -10 -5 0
-7 5 -4 10 3 6 8 10 11 10 2 0 4 -4 4 -10z"/>
<path d="M615 160 c-3 -6 1 -13 10 -16 19 -8 30 0 20 15 -8 14 -22 14 -30 1z"/>
<path d="M863 94 c3 -4 -1 -13 -9 -22 -11 -10 -18 -12 -26 -4 -11 11 -38 5
-38 -9 0 -5 10 -9 23 -9 13 0 28 -5 35 -12 14 -14 45 -20 36 -7 -12 19 15 8
30 -14 l17 -22 -4 28 c-3 21 -1 27 9 23 11 -4 11 0 -1 18 -9 13 -26 27 -38 30
-29 8 -42 8 -34 0z m53 -41 c-10 -10 -19 5 -10 18 6 11 8 11 12 0 2 -7 1 -15
-2 -18z"/>
<path d="M940 10 c0 -5 5 -10 10 -10 6 0 10 5 10 10 0 6 -4 10 -10 10 -5 0
-10 -4 -10 -10z"/>
<path d="M1205 10 c-3 -5 -1 -10 4 -10 6 0 11 5 11 10 0 6 -2 10 -4 10 -3 0
-8 -4 -11 -10z"/>
<path d="M2525 10 c3 -5 8 -10 11 -10 2 0 4 5 4 10 0 6 -5 10 -11 10 -5 0 -7
-4 -4 -10z"/>
</g>
</svg>
